<?xml version="1.0" encoding="UTF-8" standalone="no"?>
<!-- Created with Inkscape (http://www.inkscape.org/) -->

<svg
   xmlns:dc="http://purl.org/dc/elements/1.1/"
   xmlns:cc="http://creativecommons.org/ns#"
   xmlns:rdf="http://www.w3.org/1999/02/22-rdf-syntax-ns#"
   xmlns:svg="http://www.w3.org/2000/svg"
   xmlns="http://www.w3.org/2000/svg"
   xmlns:sodipodi="http://sodipodi.sourceforge.net/DTD/sodipodi-0.dtd"
   xmlns:inkscape="http://www.inkscape.org/namespaces/inkscape"
   width="210mm"
   height="297mm"
   viewBox="0 0 744.09448819 1052.3622047"
   id="svg2"
   version="1.1"
   inkscape:version="0.91 r13725"
   sodipodi:docname="eurasian inscape.svg"
   inkscape:export-filename="/Users/konchyta/Desktop/FabAcademy2017/WIP/2d/eurasianinscap2e.png"
   inkscape:export-xdpi="90"
   inkscape:export-ydpi="90">
  <defs
     id="defs4" />
  <sodipodi:namedview
     id="base"
     pagecolor="#ffffff"
     bordercolor="#666666"
     borderopacity="1.0"
     inkscape:pageopacity="0.0"
     inkscape:pageshadow="2"
     inkscape:zoom="0.45254834"
     inkscape:cx="441.89191"
     inkscape:cy="562.76108"
     inkscape:document-units="px"
     inkscape:current-layer="layer1"
     showgrid="false"
     inkscape:snap-grids="false"
     inkscape:window-width="1280"
     inkscape:window-height="751"
     inkscape:window-x="0"
     inkscape:window-y="1"
     inkscape:window-maximized="1" />
  <metadata
     id="metadata7">
    <rdf:RDF>
      <cc:Work
         rdf:about="">
        <dc:format>image/svg+xml</dc:format>
        <dc:type
           rdf:resource="http://purl.org/dc/dcmitype/StillImage" />
        <dc:title></dc:title>
      </cc:Work>
    </rdf:RDF>
  </metadata>
  <g
     inkscape:label="Layer 1"
     inkscape:groupmode="layer"
     id="layer1">
    <path
       style="opacity:1;fill:#000000;fill-opacity:1;stroke:#000000;stroke-width:11.04854393;stroke-linecap:round;stroke-linejoin:round;stroke-miterlimit:4;stroke-dasharray:none;stroke-opacity:1"
       d="m 394.92327,26.892127 c -2.54612,0 -201.67491,121.659573 -230.07813,140.568363 -16.73062,11.13803 -21.44491,15.28372 -18.96094,16.67382 3.51834,1.96896 20.94423,4.22704 46.32813,6.36719 -1.44547,-2.22087 -2.37374,-4.62692 -2.42578,-6.72656 -0.12288,-4.95732 5.96337,-11.02096 14.98437,-14.92969 8.92504,-3.86715 25.81516,-7.90762 30.5625,-7.31055 2.05517,0.25847 8.18172,3.16849 13.61524,6.46485 5.43348,3.29637 10.07431,6.01692 10.3125,6.04687 0.23815,0.03 -1.58201,-2.85544 -4.04492,-6.41211 -2.46294,-3.55666 -4.35053,-7.10303 -4.19532,-7.88086 0.43807,-2.19541 4.30717,-2.8726 16.06836,-2.8125 l 10.8457,0.0547 15.32032,7.39649 c 8.4267,4.06822 15.56145,7.25343 15.85351,7.07617 0.29206,-0.17728 -3.3788,-3.60675 -8.15625,-7.61914 -4.77742,-4.01242 -8.65069,-7.56671 -8.60742,-7.89844 0.16115,-1.23617 30.96467,-2.61921 34.88867,-1.56641 2.19679,0.5894 9.71903,4.21112 16.71485,8.04688 6.9958,3.83578 13.08171,7.01867 13.52343,7.07422 2.08745,0.26253 -2.48404,-4.01004 -9.35351,-8.74414 -7.51363,-5.17802 -8.55809,-6.48937 -5.91211,-7.42383 1.68597,-0.59542 28.90549,-1.10324 32.87695,-0.61328 1.60332,0.19684 9.82707,4.13149 18.27344,8.74219 8.44638,4.61071 15.67206,8.19159 16.05859,7.95703 1.2494,-0.75832 -8.99723,-10.26285 -13.05078,-12.10547 -2.48413,-1.1292 -3.79613,-2.46978 -3.5625,-3.64063 0.20335,-1.01911 0.57405,-1.82614 0.82227,-1.79492 0.24822,0.0312 8.84604,0.16179 19.10742,0.29102 26.8504,0.33809 25.71867,0.0585 39.68555,9.7832 6.65293,4.63221 12.42143,8.22528 12.81836,7.98437 0.39698,-0.24093 -2.40396,-4.17352 -6.22461,-8.74023 l -6.94727,-8.30273 4.83789,0.59375 c 2.66114,0.32619 14.27128,1.31582 25.80078,2.19921 23.51725,1.8019 24.75888,2.16938 33.11328,9.81836 5.22074,4.7799 6.7085,4.55134 4.65235,-0.71679 -0.71933,-1.84299 -1.21044,-3.83902 -1.0918,-4.4336 0.28517,-1.42911 31.04371,2.43517 46.68555,5.86524 6.48004,1.42101 14.60129,3.65366 18.04687,4.96093 5.40937,2.05236 6.41753,2.91647 7.38672,6.33204 1.46464,5.16147 -0.56976,9.66568 -5.71875,12.65429 -0.0735,0.0426 -0.14743,0.0799 -0.2207,0.1211 23.06622,-2.095 39.79552,-4.45803 43.04297,-6.27539 3.10889,-1.73983 -14.38491,-14.70583 -68,-50.40235 C 503.82947,95.818028 396.8289,26.892127 394.92327,26.892127 Z"
       id="path3421"
       inkscape:connector-curvature="0"
       sodipodi:nodetypes="ssscsssscssccscscssssscscsscssccccsssssssccsss" />
    <path
       style="fill:#000000"
       d="m 175.1491,250.06766 -2.35742,0.006 -0.26758,2.2832 c -0.28025,2.3996 -0.35446,9.37807 -0.11719,10.99219 0.0671,0.45628 0.12681,0.67873 0.13281,0.49414 0.006,-0.18455 0.0869,-0.20695 0.17969,-0.0508 0.1177,0.1978 0.10715,0.39201 -0.0371,0.64062 -0.14836,0.25569 -0.10289,0.35928 0.16406,0.36328 0.33234,0.006 0.34488,0.0606 0.11719,0.52344 -0.14111,0.28688 -0.0211,4.5375 0.0859,6.60938 l -0.44531,0.0176 -0.17969,1.82618 c -0.22529,2.29406 -0.2279,3.47265 -0.008,3.47265 0.12106,0 0.12308,0.154 0.01,0.52539 -0.0882,0.28919 -0.16011,1.83849 -0.16211,3.44336 -0.0141,13.74123 34.95744,0.34654 64.95313,0.39844 9.00298,-0.23169 19.93408,-0.64516 22.41992,-0.84766 6.99798,-0.52103 12.46929,-0.26435 19.02148,-0.83789 0.14301,-0.12055 5.3275,-0.21586 7.13477,-0.13086 22.34453,-1.96382 29.3202,3.38045 61.38672,-2.99218 5.12787,-0.73292 6.05256,-0.96062 6.21484,-1.53321 0.24474,-0.86366 0.24038,-1.15177 -0.0312,-1.89062 -0.26398,-0.71801 -2.45242,-0.92544 -17.92773,-1.70508 -7.675,-0.38704 -28.07019,-0.48106 -80.14649,-0.36914 -10.28659,0.0221 -18.24105,0.0626 -27.42773,0.0957 8.42346,-0.99728 16.88561,-2.09082 25.27148,-2.52539 8.79585,-0.45581 20.05883,-2.05109 28.54708,-0.17506 8.55609,0.24377 15.08172,-0.17178 20.65995,-0.16478 11.23483,0.0135 41.59195,-0.7375 47.43165,-1.17383 l 3.73828,-0.2793 0.0469,-1.35156 c 0.0299,-0.8431 -0.0273,-1.42011 -0.15234,-1.53516 -0.11021,-0.10138 -3.21929,-0.57201 -6.91016,-1.04687 -6.1423,-0.79024 -16.19967,-2.16242 -19.75195,-2.69336 -10.63239,-1.5892 -11.07163,-1.62782 -44.5332,-3.95312 -3.48115,-0.2419 -12.57561,-0.89232 -20.20899,-1.44532 -7.63337,-0.553 -16.04127,-1.10808 -18.68359,-1.23437 -2.64233,-0.12626 -6.10739,-0.32083 -7.70117,-0.43164 -1.59378,-0.11088 -4.95616,-0.29905 -7.47266,-0.41797 -2.51649,-0.1189 -5.46811,-0.30528 -6.55859,-0.41406 -1.09048,-0.10884 -5.31253,-0.38321 -9.38086,-0.60938 -4.06834,-0.22616 -8.63073,-0.50306 -10.14063,-0.61719 -1.5099,-0.11417 -7.51582,-0.40667 -13.3457,-0.64843 -5.82989,-0.24177 -10.73653,-0.48181 -10.9043,-0.53321 l 0,0.002 c -0.16776,-0.0513 -1.36716,-0.0899 -2.66406,-0.0859 z"
       id="path3508"
       inkscape:connector-curvature="0"
       sodipodi:nodetypes="cccsccccscccsccccccccccscsccscccssssccscscsccc" />
    <path
       sodipodi:type="star"
       style="opacity:1;fill:none;fill-opacity:1;stroke:#0c0000;stroke-width:5;stroke-linecap:round;stroke-linejoin:round;stroke-miterlimit:4;stroke-dasharray:none;stroke-opacity:0"
       id="path4329"
       sodipodi:sides="5"
       sodipodi:cx="207.03125"
       sodipodi:cy="313.69034"
       sodipodi:r1="26.522259"
       sodipodi:r2="13.261129"
       sodipodi:arg1="0.80622848"
       sodipodi:arg2="1.434547"
       inkscape:flatsided="false"
       inkscape:rounded="0"
       inkscape:randomized="0"
       d="m 225.39063,332.83096 -16.55815,-6.00239 -14.33169,10.23735 0.59187,-17.60257 -14.16503,-10.46673 16.92393,-4.87659 5.57722,-16.70615 9.8677,14.58867 17.61195,0.14176 -10.82537,13.89289 z"
       inkscape:transform-center-x="1.1132242"
       inkscape:transform-center-y="-1.4504396" />
    <path
       sodipodi:type="star"
       style="opacity:1;fill:none;fill-opacity:1;stroke:#0c0000;stroke-width:5;stroke-linecap:round;stroke-linejoin:round;stroke-miterlimit:4;stroke-dasharray:none;stroke-opacity:0"
       id="path4331"
       sodipodi:sides="5"
       sodipodi:cx="238.67187"
       sodipodi:cy="325.40909"
       sodipodi:r1="51.45882"
       sodipodi:r2="25.72941"
       sodipodi:arg1="0.26891516"
       sodipodi:arg2="0.89723369"
       inkscape:flatsided="false"
       inkscape:rounded="0"
       inkscape:randomized="0"
       d="m 288.28125,339.08096 -33.56002,6.43835 -13.72194,31.29594 -16.49385,-29.92792 -34.00452,-3.37936 23.36627,-24.93482 -7.29402,-33.3845 30.935,14.51736 29.49657,-17.2534 -4.24739,33.90704 z"
       inkscape:transform-center-x="-0.71921053"
       inkscape:transform-center-y="4.2248417" />
    <ellipse
       style="opacity:1;fill:none;fill-opacity:1;stroke:#0c0000;stroke-width:5;stroke-linecap:round;stroke-linejoin:round;stroke-miterlimit:4;stroke-dasharray:none;stroke-opacity:0"
       id="path4337"
       cx="389.84375"
       cy="321.89346"
       rx="13.28125"
       ry="7.03125" />
    <path
       style="fill:#000000"
       d="m 356.67694,373.90052 c -18.08331,-2.10558 -23.03964,-5.76212 -12.70175,-9.37073 l 1.95409,-0.68211 -3.59729,-2.05696 c -9.04727,-5.17331 -15.93014,-11.71315 -20.65712,-19.62757 -3.47078,-5.81117 -6.65796,-15.16528 -7.14894,-20.98155 l -0.37707,-4.46693 c 37.62581,-1.46887 71.46627,-0.25381 108.48128,0.19848 l -0.40335,3.83257 c -1.41018,13.39929 -8.76867,26.81255 -19.3931,35.3502 -2.23266,1.79414 -5.80941,4.18842 -7.94834,5.32064 l -3.88895,2.05858 3.70196,1.13754 c 6.07288,1.86609 7.15165,3.59537 3.58625,5.74875 -3.6446,2.2012 -12.28593,3.38479 -26.30044,3.60232 -7.16509,0.11121 -14.05334,0.0827 -15.30723,-0.0633 z"
       id="path4471"
       inkscape:connector-curvature="0"
       sodipodi:nodetypes="cscsssccssscssscc" />
    <path
       style="opacity:1;fill:#000000;fill-opacity:1;stroke:#0c0000;stroke-width:13.76211643;stroke-linecap:round;stroke-linejoin:round;stroke-miterlimit:4;stroke-dasharray:none;stroke-opacity:0"
       d="m 470.67107,330.41892 c -18.09952,-45.75059 -2.58248,-105.2216 33.09771,-126.85099 13.40969,-8.12896 36.28766,-8.14272 49.53573,-0.0298 30.55787,18.7132 47.60459,67.62674 37.98344,108.98897 -5.00396,21.51238 -5.61795,21.93434 -22.2602,15.2976 -20.55795,-8.19828 -50.50857,-9.43334 -70.88909,-2.92321 -8.77867,2.80416 -18.2356,5.98789 -21.01539,7.07496 -3.24863,1.27043 -5.55352,0.71404 -6.4522,-1.55753 z m 111.98672,-19.22895 c 6.09879,-25.63593 -0.12352,-61.29672 -14.33408,-82.15008 -18.50755,-27.15904 -49.91476,-31.54381 -72.19389,-10.07902 -9.01124,8.68185 -20.41817,32.53319 -22.87992,47.84075 l -2.09244,13.01109 10.68953,-8.44269 c 7.97652,-6.29994 13.44618,-8.44269 21.55102,-8.44269 12.89714,0 25.90705,6.94541 21.10364,11.26627 -4.99583,4.49395 -3.717,9.34209 4.38722,16.63218 6.45288,5.80463 7.07748,7.67804 4.35306,13.05674 -4.31915,8.52725 -4.2711,8.61588 4.79985,8.85467 4.38934,0.11554 13.85728,1.73627 21.03985,3.60161 17.90918,4.65105 21.42759,3.88266 23.57616,-5.14883 z m -87.42118,-10.20772 c 0,-6.90819 -5.14235,-11.94978 -12.18858,-11.94978 -7.23284,0 -7.37763,16.92986 -0.17578,20.55532 6.44084,3.2424 12.36436,-0.88033 12.36436,-8.60554 z"
       id="path4956"
       inkscape:connector-curvature="0" />
    <flowRoot
       xml:space="preserve"
       id="flowRoot4958"
       style="fill:black;stroke:none;stroke-opacity:1;stroke-width:1px;stroke-linejoin:miter;stroke-linecap:butt;fill-opacity:1;font-family:sans-serif;font-style:normal;font-weight:normal;font-size:40px;line-height:125%;letter-spacing:0px;word-spacing:0px"><flowRegion
         id="flowRegion4960"><rect
           id="rect4962"
           width="575.19189"
           height="196.08815"
           x="1029.4628"
           y="317.03165" /></flowRegion><flowPara
         id="flowPara4964" /></flowRoot>    <path
       style="font-style:normal;font-variant:normal;font-weight:bold;font-stretch:normal;font-size:40px;line-height:125%;font-family:'Shree Devanagari 714';-inkscape-font-specification:'Shree Devanagari 714, Bold';text-align:start;letter-spacing:0px;word-spacing:0px;writing-mode:lr-tb;text-anchor:start;fill:#000000;fill-opacity:1;stroke:none;stroke-width:1px;stroke-linecap:butt;stroke-linejoin:miter;stroke-opacity:1"
       d="m 646.96,402.38563 -121.46094,0.0137 -121.46094,0.0156 -121.46289,0.0156 -121.46094,0.0137 c 0,0 30.10349,110.08174 84.06641,128.26562 57.13788,19.25373 227.33202,9.05078 229.25,9.05078 1.28132,0 -23.75497,-57.67948 29.46289,-85.31445 53.21786,-27.63498 125.31367,-17.41243 139.60742,-22.22852 16.83916,-5.67373 3.45899,-29.83202 3.45899,-29.83203 z m -286.82813,29.43555 3.89844,0 0,4.46484 -3.89844,0 0,-4.46484 z m -14.79297,8.86523 c 2.90426,0 5.21593,0.9066 6.93555,2.71875 1.75784,1.76901 2.63672,4.14202 2.63672,7.11915 l -3.89648,0 c 0,-1.76902 -0.51706,-3.19282 -1.54883,-4.27149 -1.03178,-1.07866 -2.40734,-1.61719 -4.12696,-1.61719 -1.45212,0 -2.61716,0.36612 -3.49609,1.09961 -0.87891,0.77664 -1.31836,1.78977 -1.31836,3.04102 0,1.51013 0.70717,2.65501 2.1211,3.43164 1.06999,0.6472 2.56,1.05593 4.4707,1.22851 2.36926,0.21574 4.39476,1.12233 6.07617,2.71875 1.75784,1.68272 2.63672,3.73224 2.63672,6.14844 0,2.6751 -0.87888,4.81179 -2.63672,6.40821 -1.75784,1.5964 -4.08988,2.39453 -6.99414,2.39453 -3.17175,0 -5.69391,-0.97247 -7.56641,-2.91407 -1.91069,-1.98474 -2.86523,-4.59408 -2.86523,-7.83007 l 3.89844,0 c 0,2.07103 0.5539,3.73116 1.66211,4.98242 1.1082,1.25124 2.57979,1.87695 4.41406,1.87695 1.87248,0 3.3625,-0.38743 4.4707,-1.16406 1.1082,-0.77664 1.66211,-1.78977 1.66211,-3.04102 0,-1.72586 -0.78284,-3.08575 -2.34961,-4.07812 -1.29927,-0.81978 -2.98137,-1.33701 -5.04492,-1.55274 -2.17819,-0.21574 -4.01161,-1.12233 -5.50195,-2.71875 -1.56678,-1.63957 -2.35157,-3.60386 -2.35157,-5.89062 0,-2.45936 0.80322,-4.42169 2.40821,-5.88867 1.56677,-1.46698 3.66792,-2.20118 6.30468,-2.20118 z m -23.22851,0.51954 c 2.44569,0 4.56722,0.75354 6.36328,2.26367 1.87248,1.59642 2.80859,3.62464 2.80859,6.08398 l 0,14.75586 c 0,0.81978 0.26774,1.51136 0.80274,2.07227 0.49678,0.5609 1.10793,0.83984 1.83398,0.83984 l 0,3.94922 -1.54687,0 c -1.03178,0 -1.9679,-0.3022 -2.8086,-0.90625 -0.8407,-0.64721 -1.43341,-1.48988 -1.77734,-2.52539 -0.80249,1.33754 -1.93069,2.33132 -3.38281,2.97851 -1.33749,0.60406 -2.80713,0.90625 -4.41211,0.90625 -2.63676,0 -4.73987,-0.75549 -6.30664,-2.26562 -1.60498,-1.51013 -2.40625,-3.53835 -2.40625,-6.08398 0,-2.5025 1.01177,-4.57332 3.03711,-6.2129 1.83426,-1.46698 4.0887,-2.32901 6.76367,-2.58789 1.87248,-0.17259 3.28684,-0.49805 4.24219,-0.97265 1.33748,-0.60405 2.00586,-1.59589 2.00586,-2.97656 0,-1.51014 -0.5151,-2.78284 -1.54688,-3.81836 -1.03177,-1.03552 -2.256,-1.55274 -3.66992,-1.55274 -1.49034,0 -2.78829,0.49591 -3.89649,1.48828 -1.14642,1.03552 -1.7207,2.32953 -1.7207,3.88282 l 0,0.9707 -3.95508,0 0,-1.94141 c 0,-2.50249 0.99335,-4.55201 2.98047,-6.14844 1.83428,-1.46698 4.03147,-2.19921 6.5918,-2.19921 z m 56.95898,0 c 2.44569,0 4.56722,0.75354 6.36328,2.26367 1.87248,1.59642 2.8086,3.62464 2.8086,6.08398 l 0,14.75586 c 0,0.81978 0.26774,1.51136 0.80273,2.07227 0.49678,0.5609 1.10793,0.83984 1.83399,0.83984 l 0,3.94922 -1.54883,0 c -1.03178,0 -1.96789,-0.3022 -2.80859,-0.90625 -0.84072,-0.64721 -1.43342,-1.48988 -1.77735,-2.52539 -0.80249,1.33754 -1.92873,2.33132 -3.38086,2.97851 -1.33748,0.60406 -2.80907,0.90625 -4.41406,0.90625 -2.63676,0 -4.73791,-0.75549 -6.30469,-2.26562 -1.60498,-1.51013 -2.4082,-3.53835 -2.4082,-6.08398 0,-2.5025 1.01372,-4.57332 3.03906,-6.2129 1.83426,-1.46698 4.0887,-2.32901 6.76367,-2.58789 1.87248,-0.17259 3.28488,-0.49805 4.24024,-0.97265 1.33748,-0.60405 2.00781,-1.59589 2.00781,-2.97656 0,-1.51014 -0.51705,-2.78284 -1.54883,-3.81836 -1.03177,-1.03552 -2.25405,-1.55274 -3.66797,-1.55274 -1.49034,0 -2.79023,0.49591 -3.89843,1.48828 -1.14642,1.03552 -1.71875,2.32953 -1.71875,3.88282 l 0,0.9707 -3.95508,0 0,-1.94141 c 0,-2.50249 0.99335,-4.55201 2.98047,-6.14844 1.83427,-1.46698 4.03146,-2.19921 6.59179,-2.19921 z m -18.9375,0.45117 3.89844,0 0,29.51367 -3.89844,0 0,-29.51367 z m 45.49024,0 c 2.71318,0 5.02485,1.12357 6.93554,3.36719 1.9107,2.20046 2.86524,4.85243 2.86524,7.95898 l 0,18.1875 -3.95508,0 0,-18.1875 c 0,-1.98474 -0.62957,-3.66619 -1.89062,-5.04688 -1.26106,-1.38068 -2.78988,-2.07226 -4.58594,-2.07226 -1.79605,0 -3.34331,0.69158 -4.64258,2.07226 -1.29927,1.38069 -1.94922,3.06214 -1.94922,5.04688 l 0,18.1875 -3.89844,0 0,-28.54102 3.89844,0 0,2.97657 c 0.68785,-1.33755 1.70158,-2.35263 3.03906,-3.04297 1.26106,-0.60406 2.65504,-0.90625 4.1836,-0.90625 z m -109.70508,0.4414 0,6.60938 0.12305,0 c 2.23235,-3.57255 4.71249,-6.49024 7.3789,-6.49024 2.41837,0 4.09375,1.72638 4.09375,3.45313 0,1.78628 -1.17827,3.27372 -2.72851,3.86914 -0.80612,0.29771 -1.36477,0.11898 -1.79883,-0.23828 -0.99216,-0.77406 -1.79738,-1.18945 -2.85156,-1.18945 -1.3642,0 -3.03862,1.25031 -4.2168,4.04882 l 0,11.01563 c 0,3.87027 0.30876,4.16718 5.26953,4.58398 l 0,1.78711 -16.30664,0 0,-1.78711 c 3.65857,-0.4168 4.21484,-0.71371 4.21484,-4.58398 l 0,-12.86133 c 0,-3.45348 -0.43322,-3.69168 -3.5957,-4.28711 l 0,-1.54883 c 3.41053,-0.41681 6.82141,-1.19 10.41797,-2.38086 z m -58.96875,0.11914 0.0625,0 c 5.58087,0 9.98387,4.64291 9.92187,9.52539 0,1.19087 -0.37308,1.84582 -1.61328,2.08399 -1.11617,0.11909 -8.99097,0.71494 -15.75,0.95312 0.18603,7.20466 4.403,10.53907 8.92969,10.53907 2.48038,0 4.89851,-0.89251 7.13086,-2.85742 l 1.05469,1.42773 c -3.9066,5.23976 -8.6202,6.37109 -10.97656,6.37109 -8.12324,0 -12.83594,-5.95343 -12.83594,-12.91992 0,-4.34661 1.79843,-8.09693 4.46484,-10.7168 2.72841,-2.73897 6.26282,-4.40625 9.61133,-4.40625 z m 23.83398,0.29688 c -0.12402,2.26262 -0.18554,5.23904 -0.18554,8.99023 l 0,8.51563 c 0,4.52524 2.48005,5.95312 4.89843,5.95312 1.9843,0 3.78327,-0.59547 5.51954,-2.20312 l 0,-14.4082 c 0,-3.03667 -0.43465,-3.39471 -2.29493,-3.75196 l -2.16992,-0.35742 0,-1.60742 c 1.86028,-0.0596 4.09285,-0.2384 6.20117,-0.47656 1.98431,-0.17863 3.8438,-0.41614 5.08399,-0.6543 l 0,19.82812 c 0,3.15576 0.43319,3.69052 2.85156,3.86915 l 1.48828,0.11914 0,1.7871 c -1.61225,0.23817 -3.40924,0.53633 -5.26953,0.95313 -1.92229,0.35725 -3.78374,0.8322 -5.33398,1.18945 l -0.55664,-0.41601 0,-3.92969 c -1.24019,0.95267 -2.23347,1.78654 -3.84571,2.67969 -1.79828,1.07176 -3.34869,1.66601 -5.20898,1.66601 -4.89875,0 -8.18555,-2.91582 -8.18555,-8.81054 l 0,-12.08789 c 0,-3.03667 -0.43268,-3.33517 -2.04492,-3.75196 l -1.61328,-0.35742 0,-1.60742 c 1.48822,-0.0596 3.22516,-0.2384 5.27148,-0.47656 1.92229,-0.17863 3.96832,-0.41614 5.39453,-0.6543 z M 235.46,444.59852 c -2.54238,0 -4.96047,2.55991 -5.64258,7.50196 3.03846,0 5.89123,-0.0587 8.92969,-0.17774 1.05417,0 1.42578,-0.23871 1.42578,-1.1914 0,-3.09621 -1.73544,-6.13282 -4.58789,-6.13282 l -0.125,0 z m 91.86719,11.81641 c -1.07,0.99237 -3.01789,1.61807 -5.84571,1.87695 l -1.08984,0.0645 c -1.41391,0.12944 -2.61776,0.62535 -3.61133,1.48828 -1.06999,0.90607 -1.60547,2.04899 -1.60547,3.42969 0,1.25124 0.49668,2.28763 1.49024,3.10742 0.91713,0.73348 2.02689,1.09961 3.32617,1.09961 1.98712,0 3.68764,-0.66832 5.10156,-2.00586 1.49034,-1.33755 2.23438,-3.04225 2.23438,-5.11328 l 0,-3.94727 z m 56.95898,0 c -1.06999,0.99237 -3.01983,1.61807 -5.84766,1.87695 l -1.08789,0.0645 c -1.41392,0.12944 -2.61777,0.62535 -3.61133,1.48828 -1.06997,0.90607 -1.60546,2.04899 -1.60546,3.42969 0,1.25124 0.49668,2.28763 1.49023,3.10742 0.91714,0.73348 2.02495,1.09961 3.32422,1.09961 1.98712,0 3.68765,-0.66832 5.10156,-2.00586 1.49035,-1.33755 2.23633,-3.04225 2.23633,-5.11328 l 0,-3.94727 z"
       id="path5014"
       inkscape:connector-curvature="0"
       inkscape:export-xdpi="90"
       inkscape:export-ydpi="90" />
  </g>
</svg>
