0
SECTION
2
HEADER
9
$INSUNITS
70
4
9
$ACADVER
1
AC1014
9
$HANDSEED
5
FFFF
0
ENDSEC
0
SECTION
2
TABLES
0
TABLE
2
VPORT
5
8
100
AcDbSymbolTable
0
ENDTAB
0
TABLE
2
LTYPE
5
5
100
AcDbSymbolTable
0
LTYPE
5
14
100
AcDbSymbolTableRecord
100
AcDbLinetypeTableRecord
2
BYBLOCK
70
0
0
LTYPE
5
15
100
AcDbSymbolTableRecord
100
AcDbLinetypeTableRecord
2
BYLAYER
70
0
0
ENDTAB
0
TABLE
2
LAYER
5
2
100
AcDbSymbolTable
70
2
0
LAYER
5
50
100
AcDbSymbolTableRecord
100
AcDbLayerTableRecord
2
0
70
0
6
CONTINUOUS
0
ENDTAB
0
TABLE
2
STYLE
5
3
100
AcDbSymbolTable
70
1
0
STYLE
5
11
100
AcDbSymbolTableRecord
100
AcDbTextStyleTableRecord
2
STANDARD
70
0
0
ENDTAB
0
TABLE
2
VIEW
5
6
100
AcDbSymbolTable
70
0
0
ENDTAB
0
TABLE
2
UCS
5
7
100
AcDbSymbolTable
70
0
0
ENDTAB
0
TABLE
2
APPID
5
9
100
AcDbSymbolTable
70
2
0
APPID
5
12
100
AcDbSymbolTableRecord
100
AcDbRegAppTableRecord
2
ACAD
70
0
0
ENDTAB
0
TABLE
2
DIMSTYLE
5
A
100
AcDbSymbolTable
70
1
0
ENDTAB
0
TABLE
2
BLOCK_RECORD
5
1
100
AcDbSymbolTable
70
1
0
BLOCK_RECORD
5
1F
100
AcDbSymbolTableRecord
100
AcDbBlockTableRecord
2
*MODEL_SPACE
0
BLOCK_RECORD
5
1B
100
AcDbSymbolTableRecord
100
AcDbBlockTableRecord
2
*PAPER_SPACE
0
ENDTAB
0
ENDSEC
0
SECTION
2
BLOCKS
0
BLOCK
5
20
100
AcDbEntity
100
AcDbBlockBegin
2
*MODEL_SPACE
0
ENDBLK
5
21
100
AcDbEntity
100
AcDbBlockEnd
0
BLOCK
5
1C
100
AcDbEntity
100
AcDbBlockBegin
2
*PAPER_SPACE
0
ENDBLK
5
1D
100
AcDbEntity
100
AcDbBlockEnd
0
ENDSEC
0
SECTION
2
ENTITIES
0
LINE
5
100
100
AcDbEntity
8
0
100
AcDbLine
10
-32.241954652519169
20
-27.690015203845295
30
0
11
-26.694269920664794
21
-22.21543247133333
31
0
0
LINE
5
101
100
AcDbEntity
8
0
100
AcDbLine
10
-26.694269920664794
20
-22.21543247133333
30
0
11
-24.235864137768104
21
-24.706665299998711
31
0
0
LINE
5
102
100
AcDbEntity
8
0
100
AcDbLine
10
-29.783548869622503
20
-30.181248032510673
30
0
11
-24.235864137768104
21
-24.706665299998711
31
0
0
LINE
5
103
100
AcDbEntity
8
0
100
AcDbLine
10
-29.783548869622511
20
31.827397535244714
30
0
11
-29.783548869622404
21
23.827397535244717
31
0
0
LINE
5
104
100
AcDbEntity
8
0
100
AcDbLine
10
-29.783548869622404
20
23.827397535244717
30
0
11
-26.283548869622393
21
23.827397535244724
31
0
0
LINE
5
105
100
AcDbEntity
8
0
100
AcDbLine
10
-26.283548869622393
20
23.827397535244724
30
0
11
-26.283548869622493
21
31.621489013997621
31
0
0
LWPOLYLINE
5
106
100
AcDbEntity
8
0
100
AcDbPolyline
90
4
70
1
43
0.0
10
-43.251914154241867
20
12.050038246766929
10
-46.751914154241867
20
12.050038246766931
10
-46.751914154241867
20
-3.9499617532330698
10
-43.251914154241867
20
-3.9499617532330711
0
LWPOLYLINE
5
107
100
AcDbEntity
8
0
100
AcDbPolyline
90
4
70
1
43
0.0
10
-11.751914154241865
20
12.050038246766931
10
-11.751914154241865
20
-3.9499617532330698
10
-8.2519141542418684
20
-3.9499617532330711
10
-8.2519141542418684
20
12.050038246766929
0
LINE
5
108
100
AcDbEntity
8
0
100
AcDbLine
10
0
20
-60.362496065021354
30
0
11
-29.783548869622503
21
-30.181248032510673
31
0
0
LINE
5
109
100
AcDbEntity
8
0
100
AcDbLine
10
-32.241954652519169
20
-27.690015203845295
30
0
11
-59.567097739244986
21
0
31
0
0
ARC
5
110
100
AcDbEntity
8
0
100
AcDbCircle
10
-29.7835488696225
20
1.9782241142692583
30
0
40
29.849173420975461
100
AcDbArc
50
-3.8000057095523481
51
83.266224865874293
0
ARC
5
111
100
AcDbEntity
8
0
100
AcDbCircle
10
-29.7835488696225
20
1.9782241142692583
30
0
40
29.849173420975458
100
AcDbArc
50
90.000000000000014
51
183.80000570955241
0
LWPOLYLINE
5
112
100
AcDbEntity
8
0
100
AcDbPolyline
90
11
70
1
43
0.0
10
-102.22662919047295
20
-30.01271488073791
10
-110
20
-30.01271488073791
10
-110
20
-35.728238416414015
10
-102.00574359720228
20
-35.728238416414015
10
-102.00574359720228
20
-42.968591522127433
10
-86.005743597202283
20
-42.968591522127426
10
-86.005743597202297
20
-35.728238416414023
10
-80
20
-35.728238416414015
10
-80
20
-30.01271488073791
10
-86.226629190472948
20
-30.01271488073791
10
-95.565332930773494
20
-7.5596146586809132
0
LINE
5
113
100
AcDbEntity
8
0
100
AcDbLine
10
-102.22662919047295
20
-30.01271488073791
30
0
11
-110
21
-30.01271488073791
31
0
0
ENDSEC
0
SECTION
2
OBJECTS
0
DICTIONARY
5
C
100
AcDbDictionary
3
ACAD_GROUP
350
D
3
ACAD_MLINESTYLE
350
17
0
DICTIONARY
5
D
100
AcDbDictionary
0
DICTIONARY
5
1A
330
C
100
AcDbDictionary
0
DICTIONARY
5
17
100
AcDbDictionary
0
ENDSEC
0
EOF
